<mxfile host="65bd71144e">
    <diagram id="C5RBs43oDa-KdzZeNtuy" name="Flowcharts">
        <mxGraphModel dx="564" dy="609" grid="0" gridSize="10" guides="1" tooltips="1" connect="1" arrows="1" fold="1" page="1" pageScale="1" pageWidth="3300" pageHeight="4681" math="0" shadow="0">
            <root>
                <mxCell id="WIyWlLk6GJQsqaUBKTNV-0"/>
                <mxCell id="WIyWlLk6GJQsqaUBKTNV-1" parent="WIyWlLk6GJQsqaUBKTNV-0"/>
                <mxCell id="21" value="" style="whiteSpace=wrap;html=1;fillColor=none;dashed=1;strokeWidth=2;" parent="WIyWlLk6GJQsqaUBKTNV-1" vertex="1">
                    <mxGeometry x="1520" y="690" width="180" height="220" as="geometry"/>
                </mxCell>
                <mxCell id="22" value="" style="whiteSpace=wrap;html=1;fillColor=none;dashed=1;strokeWidth=2;" parent="WIyWlLk6GJQsqaUBKTNV-1" vertex="1">
                    <mxGeometry x="1520" y="15" width="380" height="645" as="geometry"/>
                </mxCell>
                <mxCell id="23" value="" style="whiteSpace=wrap;html=1;fillColor=none;dashed=1;strokeWidth=2;" parent="WIyWlLk6GJQsqaUBKTNV-1" vertex="1">
                    <mxGeometry x="846" y="50" width="360" height="840" as="geometry"/>
                </mxCell>
                <mxCell id="24" value="" style="whiteSpace=wrap;html=1;fillColor=none;dashed=1;strokeWidth=2;" parent="WIyWlLk6GJQsqaUBKTNV-1" vertex="1">
                    <mxGeometry x="180" y="40" width="340" height="370" as="geometry"/>
                </mxCell>
                <mxCell id="WIyWlLk6GJQsqaUBKTNV-2" value="" style="rounded=0;html=1;jettySize=auto;orthogonalLoop=1;fontSize=11;endArrow=block;endFill=0;endSize=8;strokeWidth=1;shadow=0;labelBackgroundColor=none;edgeStyle=orthogonalEdgeStyle;" parent="WIyWlLk6GJQsqaUBKTNV-1" source="WIyWlLk6GJQsqaUBKTNV-3" target="WIyWlLk6GJQsqaUBKTNV-6" edge="1">
                    <mxGeometry relative="1" as="geometry"/>
                </mxCell>
                <mxCell id="WIyWlLk6GJQsqaUBKTNV-3" value="Record child demographic information" style="rounded=1;whiteSpace=wrap;html=1;fontSize=12;glass=0;strokeWidth=1;shadow=0;sketch=1;" parent="WIyWlLk6GJQsqaUBKTNV-1" vertex="1">
                    <mxGeometry x="200" y="80" width="120" height="40" as="geometry"/>
                </mxCell>
                <mxCell id="WIyWlLk6GJQsqaUBKTNV-4" value="Yes" style="rounded=0;html=1;jettySize=auto;orthogonalLoop=1;fontSize=11;endArrow=block;endFill=0;endSize=8;strokeWidth=1;shadow=0;labelBackgroundColor=none;edgeStyle=orthogonalEdgeStyle;" parent="WIyWlLk6GJQsqaUBKTNV-1" source="WIyWlLk6GJQsqaUBKTNV-6" edge="1">
                    <mxGeometry y="20" relative="1" as="geometry">
                        <mxPoint as="offset"/>
                        <mxPoint x="260" y="290" as="targetPoint"/>
                    </mxGeometry>
                </mxCell>
                <mxCell id="WIyWlLk6GJQsqaUBKTNV-5" value="No" style="edgeStyle=orthogonalEdgeStyle;rounded=0;html=1;jettySize=auto;orthogonalLoop=1;fontSize=11;endArrow=block;endFill=0;endSize=8;strokeWidth=1;shadow=0;labelBackgroundColor=none;" parent="WIyWlLk6GJQsqaUBKTNV-1" source="WIyWlLk6GJQsqaUBKTNV-6" target="WIyWlLk6GJQsqaUBKTNV-7" edge="1">
                    <mxGeometry y="10" relative="1" as="geometry">
                        <mxPoint as="offset"/>
                    </mxGeometry>
                </mxCell>
                <mxCell id="WIyWlLk6GJQsqaUBKTNV-6" value="Is child information recorded?" style="rhombus;whiteSpace=wrap;html=1;shadow=0;fontFamily=Helvetica;fontSize=12;align=center;strokeWidth=1;spacing=6;spacingTop=-4;sketch=1;" parent="WIyWlLk6GJQsqaUBKTNV-1" vertex="1">
                    <mxGeometry x="210" y="170" width="100" height="80" as="geometry"/>
                </mxCell>
                <mxCell id="WIyWlLk6GJQsqaUBKTNV-7" value="navigate to intake, Create student profile" style="rounded=1;whiteSpace=wrap;html=1;fontSize=12;glass=0;strokeWidth=1;shadow=0;sketch=1;" parent="WIyWlLk6GJQsqaUBKTNV-1" vertex="1">
                    <mxGeometry x="380" y="185" width="120" height="50" as="geometry"/>
                </mxCell>
                <mxCell id="WIyWlLk6GJQsqaUBKTNV-12" value="Add student to teachers classroom" style="rounded=1;whiteSpace=wrap;html=1;fontSize=12;glass=0;strokeWidth=1;shadow=0;sketch=1;" parent="WIyWlLk6GJQsqaUBKTNV-1" vertex="1">
                    <mxGeometry x="380" y="310" width="120" height="40" as="geometry"/>
                </mxCell>
                <mxCell id="xif1potBlTGnX36soRZP-2" style="edgeStyle=orthogonalEdgeStyle;rounded=0;orthogonalLoop=1;jettySize=auto;html=1;entryX=0;entryY=0.5;entryDx=0;entryDy=0;" parent="WIyWlLk6GJQsqaUBKTNV-1" source="xif1potBlTGnX36soRZP-0" target="WIyWlLk6GJQsqaUBKTNV-12" edge="1">
                    <mxGeometry relative="1" as="geometry"/>
                </mxCell>
                <mxCell id="xif1potBlTGnX36soRZP-0" value="&lt;span style=&quot;font-family: &amp;#34;helvetica&amp;#34; ; font-size: 12px ; font-style: normal ; font-weight: 400 ; letter-spacing: normal ; text-align: center ; text-indent: 0px ; text-transform: none ; word-spacing: 0px ; display: inline ; float: none&quot;&gt;&lt;font color=&quot;#ffffff&quot;&gt;Navigate to student profile&lt;/font&gt;&lt;/span&gt;" style="whiteSpace=wrap;html=1;shadow=0;strokeWidth=1;spacing=6;spacingTop=-4;rounded=1;glass=0;sketch=1;" parent="WIyWlLk6GJQsqaUBKTNV-1" vertex="1">
                    <mxGeometry x="200" y="300" width="120" height="60" as="geometry"/>
                </mxCell>
                <mxCell id="xif1potBlTGnX36soRZP-8" value="" style="edgeStyle=orthogonalEdgeStyle;rounded=0;orthogonalLoop=1;jettySize=auto;html=1;" parent="WIyWlLk6GJQsqaUBKTNV-1" source="xif1potBlTGnX36soRZP-3" target="xif1potBlTGnX36soRZP-7" edge="1">
                    <mxGeometry relative="1" as="geometry"/>
                </mxCell>
                <mxCell id="xif1potBlTGnX36soRZP-3" value="Strategy gets submitted by teacher" style="rounded=1;whiteSpace=wrap;html=1;fontSize=12;glass=0;strokeWidth=1;shadow=0;sketch=1;" parent="WIyWlLk6GJQsqaUBKTNV-1" vertex="1">
                    <mxGeometry x="890" y="70" width="120" height="40" as="geometry"/>
                </mxCell>
                <mxCell id="xif1potBlTGnX36soRZP-4" value="&lt;h1&gt;Intake Flow&lt;/h1&gt;&lt;p&gt;The intake flow will allow teachers to record demographic information about the students to record and tailor support for the students.&lt;/p&gt;" style="text;html=1;strokeColor=none;fillColor=none;spacing=5;spacingTop=-20;whiteSpace=wrap;overflow=hidden;rounded=0;glass=1;" parent="WIyWlLk6GJQsqaUBKTNV-1" vertex="1">
                    <mxGeometry x="540" y="100" width="190" height="120" as="geometry"/>
                </mxCell>
                <mxCell id="xif1potBlTGnX36soRZP-5" value="&lt;h1&gt;Strategies Flow&lt;/h1&gt;&lt;p&gt;Strategies will created by the peer reviewed community to be later applied to students according to the academic need of the student.&lt;/p&gt;&lt;p&gt;After the strategies are submitted they will be available for teachers to assign them to students.&lt;/p&gt;" style="text;html=1;strokeColor=none;fillColor=none;spacing=5;spacingTop=-20;whiteSpace=wrap;overflow=hidden;rounded=0;glass=1;" parent="WIyWlLk6GJQsqaUBKTNV-1" vertex="1">
                    <mxGeometry x="1250" y="70" width="190" height="190" as="geometry"/>
                </mxCell>
                <mxCell id="xif1potBlTGnX36soRZP-11" value="" style="edgeStyle=orthogonalEdgeStyle;rounded=0;orthogonalLoop=1;jettySize=auto;html=1;" parent="WIyWlLk6GJQsqaUBKTNV-1" source="xif1potBlTGnX36soRZP-7" target="xif1potBlTGnX36soRZP-10" edge="1">
                    <mxGeometry relative="1" as="geometry"/>
                </mxCell>
                <mxCell id="xif1potBlTGnX36soRZP-7" value="Strategy gets moved into the &quot;sent for revision&quot; status" style="whiteSpace=wrap;html=1;rounded=1;glass=0;strokeWidth=1;shadow=0;sketch=1;" parent="WIyWlLk6GJQsqaUBKTNV-1" vertex="1">
                    <mxGeometry x="890" y="170" width="120" height="60" as="geometry"/>
                </mxCell>
                <mxCell id="25" style="edgeStyle=none;html=1;exitX=0.5;exitY=1;exitDx=0;exitDy=0;" parent="WIyWlLk6GJQsqaUBKTNV-1" source="xif1potBlTGnX36soRZP-10" target="xif1potBlTGnX36soRZP-16" edge="1">
                    <mxGeometry relative="1" as="geometry"/>
                </mxCell>
                <mxCell id="xif1potBlTGnX36soRZP-10" value="Strategies becomes&amp;nbsp; available for all teachers to review" style="whiteSpace=wrap;html=1;rounded=1;glass=0;strokeWidth=1;shadow=0;sketch=1;" parent="WIyWlLk6GJQsqaUBKTNV-1" vertex="1">
                    <mxGeometry x="890" y="280" width="120" height="60" as="geometry"/>
                </mxCell>
                <mxCell id="xif1potBlTGnX36soRZP-19" value="" style="edgeStyle=orthogonalEdgeStyle;rounded=0;orthogonalLoop=1;jettySize=auto;html=1;" parent="WIyWlLk6GJQsqaUBKTNV-1" source="xif1potBlTGnX36soRZP-16" target="xif1potBlTGnX36soRZP-18" edge="1">
                    <mxGeometry relative="1" as="geometry"/>
                </mxCell>
                <mxCell id="xif1potBlTGnX36soRZP-23" value="" style="edgeStyle=orthogonalEdgeStyle;rounded=0;orthogonalLoop=1;jettySize=auto;html=1;" parent="WIyWlLk6GJQsqaUBKTNV-1" source="xif1potBlTGnX36soRZP-16" target="xif1potBlTGnX36soRZP-22" edge="1">
                    <mxGeometry relative="1" as="geometry"/>
                </mxCell>
                <mxCell id="xif1potBlTGnX36soRZP-16" value="strategy&lt;br&gt;accepted by reviewer?" style="rhombus;whiteSpace=wrap;html=1;rounded=1;glass=0;strokeWidth=1;shadow=0;sketch=1;" parent="WIyWlLk6GJQsqaUBKTNV-1" vertex="1">
                    <mxGeometry x="902.5" y="486" width="95" height="95" as="geometry"/>
                </mxCell>
                <mxCell id="1" style="edgeStyle=orthogonalEdgeStyle;html=1;entryX=1;entryY=0.5;entryDx=0;entryDy=0;" parent="WIyWlLk6GJQsqaUBKTNV-1" source="xif1potBlTGnX36soRZP-18" target="xif1potBlTGnX36soRZP-10" edge="1">
                    <mxGeometry relative="1" as="geometry">
                        <Array as="points">
                            <mxPoint x="1130" y="310"/>
                        </Array>
                    </mxGeometry>
                </mxCell>
                <mxCell id="xif1potBlTGnX36soRZP-18" value="send strategy back to user to for revision" style="whiteSpace=wrap;html=1;rounded=1;glass=0;strokeWidth=1;shadow=0;sketch=1;" parent="WIyWlLk6GJQsqaUBKTNV-1" vertex="1">
                    <mxGeometry x="1066" y="503.5" width="120" height="60" as="geometry"/>
                </mxCell>
                <mxCell id="3" value="" style="edgeStyle=orthogonalEdgeStyle;html=1;" parent="WIyWlLk6GJQsqaUBKTNV-1" source="xif1potBlTGnX36soRZP-22" target="2" edge="1">
                    <mxGeometry relative="1" as="geometry"/>
                </mxCell>
                <mxCell id="xif1potBlTGnX36soRZP-22" value="&lt;span&gt;Strategy becomes available to public strategy pool&lt;/span&gt;" style="whiteSpace=wrap;html=1;rounded=1;glass=0;strokeWidth=1;shadow=0;sketch=1;" parent="WIyWlLk6GJQsqaUBKTNV-1" vertex="1">
                    <mxGeometry x="890" y="670" width="120" height="60" as="geometry"/>
                </mxCell>
                <mxCell id="0" value="&lt;h1&gt;Landing Page Flow&lt;/h1&gt;&lt;p&gt;Landing page will describe the team , mission, offering, and allow users to sign up for beta access&lt;/p&gt;" style="text;html=1;strokeColor=none;fillColor=none;spacing=5;spacingTop=-20;whiteSpace=wrap;overflow=hidden;rounded=0;glass=1;" parent="WIyWlLk6GJQsqaUBKTNV-1" vertex="1">
                    <mxGeometry x="2020" y="65" width="190" height="190" as="geometry"/>
                </mxCell>
                <mxCell id="2" value="&lt;meta charset=&quot;utf-8&quot;&gt;&lt;span style=&quot;color: rgb(240, 240, 240); font-family: helvetica; font-size: 12px; font-style: normal; font-weight: 400; letter-spacing: normal; text-align: center; text-indent: 0px; text-transform: none; word-spacing: 0px; background-color: rgb(42, 42, 42); display: inline; float: none;&quot;&gt;Strategy becomes available to all teachers to apply to students&lt;/span&gt;" style="whiteSpace=wrap;html=1;rounded=1;glass=0;strokeWidth=1;shadow=0;sketch=1;" parent="WIyWlLk6GJQsqaUBKTNV-1" vertex="1">
                    <mxGeometry x="890" y="810" width="120" height="60" as="geometry"/>
                </mxCell>
                <mxCell id="6" value="" style="edgeStyle=orthogonalEdgeStyle;html=1;" parent="WIyWlLk6GJQsqaUBKTNV-1" source="4" target="5" edge="1">
                    <mxGeometry relative="1" as="geometry"/>
                </mxCell>
                <mxCell id="4" value="&lt;span style=&quot;color: rgb(240 , 240 , 240) ; font-family: &amp;#34;helvetica&amp;#34; ; font-size: 12px ; font-style: normal ; font-weight: 400 ; letter-spacing: normal ; text-align: center ; text-indent: 0px ; text-transform: none ; word-spacing: 0px ; background-color: rgb(42 , 42 , 42) ; display: inline ; float: none&quot;&gt;Display mission&lt;/span&gt;" style="whiteSpace=wrap;html=1;rounded=1;glass=0;strokeWidth=1;shadow=0;sketch=1;" parent="WIyWlLk6GJQsqaUBKTNV-1" vertex="1">
                    <mxGeometry x="1550" y="40" width="120" height="60" as="geometry"/>
                </mxCell>
                <mxCell id="8" value="" style="edgeStyle=orthogonalEdgeStyle;html=1;" parent="WIyWlLk6GJQsqaUBKTNV-1" source="5" target="7" edge="1">
                    <mxGeometry relative="1" as="geometry"/>
                </mxCell>
                <mxCell id="5" value="Provide field to submit email address" style="whiteSpace=wrap;html=1;rounded=1;glass=0;strokeWidth=1;shadow=0;sketch=1;" parent="WIyWlLk6GJQsqaUBKTNV-1" vertex="1">
                    <mxGeometry x="1550" y="135" width="120" height="60" as="geometry"/>
                </mxCell>
                <mxCell id="10" value="" style="edgeStyle=orthogonalEdgeStyle;html=1;" parent="WIyWlLk6GJQsqaUBKTNV-1" source="7" target="9" edge="1">
                    <mxGeometry relative="1" as="geometry"/>
                </mxCell>
                <mxCell id="16" value="" style="edgeStyle=orthogonalEdgeStyle;html=1;" parent="WIyWlLk6GJQsqaUBKTNV-1" source="7" target="15" edge="1">
                    <mxGeometry relative="1" as="geometry"/>
                </mxCell>
                <mxCell id="7" value="Is email address valid?" style="rhombus;whiteSpace=wrap;html=1;rounded=1;glass=0;strokeWidth=1;shadow=0;sketch=1;" parent="WIyWlLk6GJQsqaUBKTNV-1" vertex="1">
                    <mxGeometry x="1550" y="235" width="120" height="100" as="geometry"/>
                </mxCell>
                <mxCell id="12" value="" style="edgeStyle=orthogonalEdgeStyle;html=1;" parent="WIyWlLk6GJQsqaUBKTNV-1" source="9" target="11" edge="1">
                    <mxGeometry relative="1" as="geometry"/>
                </mxCell>
                <mxCell id="9" value="Add beta user to cue" style="whiteSpace=wrap;html=1;rounded=1;glass=0;strokeWidth=1;shadow=0;sketch=1;" parent="WIyWlLk6GJQsqaUBKTNV-1" vertex="1">
                    <mxGeometry x="1550" y="370" width="120" height="60" as="geometry"/>
                </mxCell>
                <mxCell id="14" value="" style="edgeStyle=orthogonalEdgeStyle;html=1;" parent="WIyWlLk6GJQsqaUBKTNV-1" source="11" target="13" edge="1">
                    <mxGeometry relative="1" as="geometry"/>
                </mxCell>
                <mxCell id="11" value="Show them their place in queue with modal" style="whiteSpace=wrap;html=1;rounded=1;glass=0;strokeWidth=1;shadow=0;sketch=1;" parent="WIyWlLk6GJQsqaUBKTNV-1" vertex="1">
                    <mxGeometry x="1550" y="465" width="120" height="60" as="geometry"/>
                </mxCell>
                <mxCell id="13" value="Send email with sendgrid with confirmation / subscription to updates" style="whiteSpace=wrap;html=1;rounded=1;glass=0;strokeWidth=1;shadow=0;sketch=1;" parent="WIyWlLk6GJQsqaUBKTNV-1" vertex="1">
                    <mxGeometry x="1550" y="560" width="120" height="85" as="geometry"/>
                </mxCell>
                <mxCell id="17" style="edgeStyle=orthogonalEdgeStyle;html=1;entryX=1;entryY=0.5;entryDx=0;entryDy=0;" parent="WIyWlLk6GJQsqaUBKTNV-1" source="15" target="5" edge="1">
                    <mxGeometry relative="1" as="geometry">
                        <Array as="points">
                            <mxPoint x="1810" y="200"/>
                            <mxPoint x="1670" y="200"/>
                        </Array>
                    </mxGeometry>
                </mxCell>
                <mxCell id="15" value="Require beta user to enter valid email address" style="whiteSpace=wrap;html=1;rounded=1;glass=0;strokeWidth=1;shadow=0;sketch=1;" parent="WIyWlLk6GJQsqaUBKTNV-1" vertex="1">
                    <mxGeometry x="1750" y="255" width="120" height="60" as="geometry"/>
                </mxCell>
                <mxCell id="20" value="" style="edgeStyle=orthogonalEdgeStyle;html=1;" parent="WIyWlLk6GJQsqaUBKTNV-1" source="18" target="19" edge="1">
                    <mxGeometry relative="1" as="geometry"/>
                </mxCell>
                <mxCell id="18" value="Display supported frameworks" style="whiteSpace=wrap;html=1;rounded=1;glass=0;strokeWidth=1;shadow=0;sketch=1;" parent="WIyWlLk6GJQsqaUBKTNV-1" vertex="1">
                    <mxGeometry x="1550" y="700" width="120" height="85" as="geometry"/>
                </mxCell>
                <mxCell id="19" value="when hovering over frameworks descriptions will show" style="whiteSpace=wrap;html=1;rounded=1;glass=0;strokeWidth=1;shadow=0;sketch=1;" parent="WIyWlLk6GJQsqaUBKTNV-1" vertex="1">
                    <mxGeometry x="1550" y="830" width="120" height="60" as="geometry"/>
                </mxCell>
            </root>
        </mxGraphModel>
    </diagram>
</mxfile>